<?xml version="1.0" encoding="iso-8859-1"?>
<!-- Generator: Adobe Illustrator 19.0.0, SVG Export Plug-In . SVG Version: 6.00 Build 0)  -->
<svg version="1.1" id="Capa_1" xmlns="http://www.w3.org/2000/svg" xmlns:xlink="http://www.w3.org/1999/xlink" x="0px" y="0px"
	 viewBox="0 0 360.8 360.8" style="enable-background:new 0 0 360.8 360.8;" xml:space="preserve">
<g>
	<g>
		<g>
			<path style="fill:#00c1a6;" d="M180.4,0C80.8,0,0,80.8,0,180.4s80.8,180.4,180.4,180.4S360.8,280,360.8,180.4S280,0,180.4,0z
				 M180.4,347.2c-92,0-166.8-74.8-166.8-166.8S88.4,13.6,180.4,13.6s166.8,74.8,166.8,166.8S272.4,347.2,180.4,347.2z"/>
			<path style="fill:#00c1a6;" d="M180.4,49.2C108,49.2,49.2,108,49.2,180.4S108,311.6,180.4,311.6s131.2-58.8,131.2-131.2
				S252.8,49.2,180.4,49.2z M180.4,298c-64.8,0-117.6-52.8-117.6-117.6S115.6,62.8,180.4,62.8S298,115.6,298,180.4
				S245.2,298,180.4,298z"/>
			<path style="fill:#00c1a6;" d="M180.4,100.4c-44,0-80,36-80,80s36,80,80,80s80-36,80-80S224.4,100.4,180.4,100.4z M180.4,246.8
				c-36.8,0-66.4-30-66.4-66.4c0-36.8,30-66.4,66.4-66.4c36.4,0,66.4,29.6,66.4,66.4S217.2,246.8,180.4,246.8z"/>
			<path style="fill:#00c1a6;" d="M162,199.2l-15.2-30.4c-1.6-3.2-5.6-4.8-9.2-3.2c-3.2,1.6-4.8,5.6-3.2,9.2l18.8,37.6
				c0.8,1.6,2.4,3.2,4.4,3.6c0.4,0,1.2,0,1.6,0c1.6,0,2.8-0.4,4-1.2l70-50c3.2-2,3.6-6.4,1.6-9.6s-6.4-3.6-9.6-1.6L162,199.2z"/>
		</g>
	</g>
</g>
<g>
</g>
<g>
</g>
<g>
</g>
<g>
</g>
<g>
</g>
<g>
</g>
<g>
</g>
<g>
</g>
<g>
</g>
<g>
</g>
<g>
</g>
<g>
</g>
<g>
</g>
<g>
</g>
<g>
</g>
</svg>
